<?xml version="1.0" standalone="no"?><!DOCTYPE svg PUBLIC "-//W3C//DTD SVG 1.1//EN" "http://www.w3.org/Graphics/SVG/1.1/DTD/svg11.dtd"><svg t="1594371342532" class="icon" viewBox="0 0 1024 1024" version="1.1" xmlns="http://www.w3.org/2000/svg" p-id="9896" data-spm-anchor-id="a313x.7781069.0.i25" xmlns:xlink="http://www.w3.org/1999/xlink" width="200" height="200"><defs><style type="text/css"></style></defs><path d="M530.940374 893.515157c-1.943258 0-3.911076-0.339738-5.829775-1.052982L161.694659 755.967454c-43.131333-16.776082-66.903759-50.89618-67.122747-96.157014-0.008186-1.359974 0.153496-2.720971 0.48607-4.048199 21.011546-85.291548 36.370349-216.34535 4.720511-240.668315-23.116487-17.764596-35.722596-46.419216-35.471886-80.69281 0.364297-51.001581 29.067013-107.832937 69.809949-138.220015 100.740402-75.138304 246.611677-69.211315 343.124801-65.260329 34.629705 1.400906 279.192723 51.689243 390.709563 95.258551 8.534374 3.335978 12.744255 12.955056 9.416464 21.481244-3.335978 8.518001-12.930497 12.727882-21.481244 9.416464-110.99086-43.366693-352.484983-91.9062-379.989407-93.02365-91.833545-3.748371-230.645031-9.383718-321.959759 58.71731-32.42755 24.184819-56.183604 71.235414-56.467059 111.864764-0.121773 16.7198 3.683902 39.698141 22.51683 54.159504 59.033511 45.366234 18.056238 230.563166 7.78122 272.812409 0.769526 30.556946 16.161075 51.868321 45.763276 63.381539l363.237885 136.413879c8.574283 3.222391 12.914124 12.792351 9.691733 21.35947C543.968086 889.417839 537.644053 893.515157 530.940374 893.515157z" p-id="9897" data-spm-anchor-id="a313x.7781069.0.i22" class="" fill="#e89abe"></path><path d="M544.502251 895.117654c-17.780969 0-34.136471-6.185886-44.880163-16.97051-9.197476-9.230222-14.039761-21.278629-13.983479-34.815947 0.008186-1.214664 0.145309-2.429329 0.413416-3.611248 25.76378-113.484657 44.240597-289.573141 2.065032-307.126936-34.289967-14.275121-53.511751-53.325509-48.961108-99.484805 7.570419-76.740802 78.992075-171.440627 256.740362-207.058846 25.38311-5.084808 53.924143-7.78122 82.538855-7.78122 84.198657 0 175.805028 22.905686 180.39558 87.193875 0.12996 3.125177 0.283456 5.554506 0.428765 7.886621 1.716084 27.342742 0.509606 44.36237-44.751227 103.282295-31.974225 41.649586-15.027252 214.774575 3.157923 314.105884 0.186242 0.98749 0.275269 1.991354 0.275269 2.996241 0 36.386722-27.042913 72.077595-61.576427 81.243349l-291.702642 77.518514C558.080501 894.243751 551.294958 895.117654 544.502251 895.117654z" p-id="9898" data-spm-anchor-id="a313x.7781069.0.i21" class="" fill="#e89abe"></path><path d="M314.206168 694.074825c-1.351787 0-2.736321-0.161682-4.105504-0.517793-8.874111-2.267647-14.234189-11.287067-11.966543-20.161179 39.900755-156.340721 22.160719-176.62265-0.299829-202.313775-12.071943-13.797237-27.092032-30.978549-35.989679-65.227584-8.396227-32.305777-5.028527-60.563354 9.991562-83.996043 25.990954-40.548508 77.526701-50.151213 79.704296-50.54007 9.101285-1.578961 17.634636 4.396123 19.238157 13.408381 1.611707 9.003048-4.380774 17.60189-13.367449 19.22997-0.833995 0.161682-39.844473 7.812943-57.762565 35.957957-9.740852 15.310707-11.659551 34.68701-5.708002 57.600883 6.930853 26.662243 17.578354 38.84061 28.857235 51.738361 32.160467 36.775578 48.710398 70.765717 7.465019 232.336556C328.35133 689.087231 321.606719 694.074825 314.206168 694.074825z" p-id="9899" data-spm-anchor-id="a313x.7781069.0.i23" class="" fill="#a686ba"></path></svg>