<?xml version="1.0" standalone="no"?><!DOCTYPE svg PUBLIC "-//W3C//DTD SVG 1.1//EN" "http://www.w3.org/Graphics/SVG/1.1/DTD/svg11.dtd"><svg t="1594362556380" class="icon" viewBox="0 0 1024 1024" version="1.1" xmlns="http://www.w3.org/2000/svg" p-id="3939" data-spm-anchor-id="a313x.7781069.0.i7" xmlns:xlink="http://www.w3.org/1999/xlink" width="200" height="200"><defs><style type="text/css"></style></defs><path d="M364.54 504.37A30 30 0 0 0 394 468.68a434.74 434.74 0 0 0-76-174.52 553.43 553.43 0 0 0-61.39 18.72 374.46 374.46 0 0 1 78.52 167.17 30 30 0 0 0 29.41 24.32zM526.25 470.05a30 30 0 0 0 58.91-11.37 432.1 432.1 0 0 0-84.5-185.76q-39.61 0.42-76.6 3.86a372 372 0 0 1 102.19 193.27zM746.81 484.37a30 30 0 0 0 29.49-35.69 434.65 434.65 0 0 0-60.47-151.78 689.35 689.35 0 0 0-88.15-16.9 373.73 373.73 0 0 1 89.7 180.1 30 30 0 0 0 29.43 24.27z" fill="#a686ba" p-id="3940" data-spm-anchor-id="a313x.7781069.0.i5" class="selected"></path><path d="M979.24 401.94c-25-40.89-61.36-76.19-108.09-104.93-89.53-55.06-213.9-84.16-359.64-84.16S241.4 242 151.87 297c-46.73 28.74-83.09 64-108.09 104.93C17.59 444.79 4.31 493 4.31 545.27s13.47 99.35 40 139.53c25.05 37.89 61.82 69.76 109.27 94.71 86 45.23 206.42 68.17 357.89 68.17s271.88-22.93 357.89-68.17c47.45-25 84.21-56.82 109.27-94.71 26.57-40.18 40-87.13 40-139.53s-13.2-100.48-39.39-143.33zM841.48 726.41c-76.22 40.08-190.32 61.27-330 61.27s-253.75-21.19-330-61.27C102.66 684.92 64.31 625.67 64.31 545.27c0-81.1 41.14-149.27 119-197.14a418.08 418.08 0 0 1 73.3-35.25A553.43 553.43 0 0 1 318 294.16a731.3 731.3 0 0 1 106.08-17.38q36.95-3.43 76.6-3.86 5.41-0.06 10.85-0.07A913.22 913.22 0 0 1 627.68 280a689.35 689.35 0 0 1 88.15 16.94c47.06 12.44 88.7 29.59 123.89 51.23 77.84 47.87 119 116 119 197.14-0.01 80.36-38.36 139.61-117.24 181.1z" fill="#e89abe" p-id="3941" data-spm-anchor-id="a313x.7781069.0.i4" class=""></path></svg>