<?xml version="1.0" standalone="no"?><!DOCTYPE svg PUBLIC "-//W3C//DTD SVG 1.1//EN" "http://www.w3.org/Graphics/SVG/1.1/DTD/svg11.dtd"><svg t="1594371253833" class="icon" viewBox="0 0 1036 1024" version="1.1" xmlns="http://www.w3.org/2000/svg" p-id="9263" data-spm-anchor-id="a313x.7781069.0.i11" xmlns:xlink="http://www.w3.org/1999/xlink" width="202.34375" height="200"><defs><style type="text/css"></style></defs><path d="M787.2 992H256c-102.4 0-179.2-76.8-179.2-179.2V480C32 435.2 0 364.8 0 300.8 0 153.6 121.6 32 275.2 32h486.4c147.2 0 275.2 121.6 275.2 268.8 0 64-25.6 128-70.4 172.8v339.2c0 102.4-83.2 179.2-179.2 179.2zM275.2 128C172.8 128 96 204.8 96 300.8c0 51.2 19.2 96 57.6 128 12.8 6.4 19.2 19.2 19.2 32v352c0 44.8 38.4 83.2 89.6 83.2h531.2c44.8 0 89.6-38.4 89.6-83.2V454.4c0-12.8 6.4-25.6 12.8-32 32-32 51.2-76.8 51.2-121.6 0-96-76.8-172.8-179.2-172.8H275.2z" fill="#e89abe" p-id="9264" data-spm-anchor-id="a313x.7781069.0.i10" class=""></path><path d="M409.6 550.4c-6.4 0-12.8 0-25.6-6.4-19.2-12.8-32-38.4-19.2-64l96-166.4c12.8-19.2 38.4-32 64-19.2 19.2 12.8 32 38.4 19.2 64L448 524.8c-6.4 12.8-19.2 25.6-38.4 25.6zM531.2 736c-6.4 0-12.8 0-25.6-6.4-19.2-12.8-32-38.4-19.2-64L582.4 499.2c12.8-19.2 38.4-32 64-19.2 19.2 12.8 32 38.4 19.2 64l-96 166.4c-6.4 12.8-19.2 25.6-38.4 25.6z" fill="#a686ba" p-id="9265" data-spm-anchor-id="a313x.7781069.0.i9" class=""></path></svg>