<?xml version="1.0" standalone="no"?><!DOCTYPE svg PUBLIC "-//W3C//DTD SVG 1.1//EN" "http://www.w3.org/Graphics/SVG/1.1/DTD/svg11.dtd"><svg t="1594372375930" class="icon" viewBox="0 0 1024 1024" version="1.1" xmlns="http://www.w3.org/2000/svg" p-id="13780" data-spm-anchor-id="a313x.7781069.0.i31" xmlns:xlink="http://www.w3.org/1999/xlink" width="200" height="200"><defs><style type="text/css"></style></defs><path d="M796.021 1004.029H156.192c-52.841 0-92.689-44.278-92.689-102.994v-1.115l0.062-1.113c0.24-4.329 23.808-431.421 23.75-566.061-2.483-3.909-9.379-11.255-14.108-16.293-13.542-14.427-30.396-32.381-40.25-57.462-12.079-30.744-10.222-64.05 5.52-98.994 15.622-34.662 60.932-66.794 127.586-90.482 80.241-28.518 184.288-42.977 309.25-42.977 131.354 0 238.083 14.776 317.219 43.919 62.984 23.194 106.078 55.119 121.343 89.895 15.25 34.684 16.806 67.84 4.615 98.524-9.909 24.943-26.709 43.022-40.207 57.549-5.018 5.399-12.377 13.32-14.779 17.372-0.649 152.017 29.525 544.5 29.832 548.467l0.12 1.55v1.554c0 25.307-8.626 52.556-23.666 74.76-18.898 27.9-45.786 43.901-73.769 43.901z m-651.914-102.09c0.219 8.679 3.573 21.496 12.084 21.496h638.822c6.014-2.962 17.256-20.729 17.824-36.811-2.556-33.272-30.897-405.907-29.914-555.786 0.211-30.416 20.231-51.961 36.317-69.274 24.05-25.882 34.123-38.598 20.845-68.799-2.723-5.963-22.564-27.367-76.245-46.99-48.229-17.63-137.436-38.646-288.529-38.646-142.588 0-231.003 20.42-280.066 37.55-58.383 20.384-80.264 42.397-83.327 48.502-13.684 30.378-4.335 42.134 20.049 68.111 15.975 17.018 35.856 38.198 35.936 68.405 0.396 131.354-22.061 540.824-23.796 572.242z" fill="#82529d" p-id="13781" data-spm-anchor-id="a313x.7781069.0.i28" class="selected"></path><path d="M522.969 1004.147l-0.193-80.594 320.995-0.769c3.8-1.019 14.939-7.037 26.881-19.953 11.968-12.945 16.413-24.012 16.672-27.278-1.401-17.595-31.062-392.068-30.056-545.361 0.212-32.408 22.673-53.193 39.074-68.371 21.968-20.33 30.465-28.196 18.829-55.741-6.089-6.922-39.616-32.587-120.203-57.399-62.264-19.169-167.36-42.021-314.453-42.021V26.069c164.269 0 281.198 26.893 350.363 49.454 39.429 12.861 74.453 27.988 101.287 43.744 29.852 17.528 48.187 34.76 56.052 52.679 15.342 34.909 16.807 67.287 4.346 96.214-10.335 23.99-27.605 39.972-41.482 52.814-4.324 4.002-10.551 9.765-13.237 13.153-0.515 151.869 29.272 528.144 29.823 535.077 3.12 37.636-22.117 71.232-37.451 87.92-12.779 13.906-46.688 46.253-85.447 46.253l-321.8 0.77z" fill="#82529d" p-id="13782" data-spm-anchor-id="a313x.7781069.0.i29" class="selected"></path></svg>